<svg id="visual" viewBox="0 0 900 450" width="900" height="450" xmlns="http://www.w3.org/2000/svg" xmlns:xlink="http://www.w3.org/1999/xlink" version="1.1"><rect x="0" y="0" width="900" height="450" fill="#0a151e"></rect><defs><linearGradient id="grad1_0" x1="50%" y1="0%" x2="100%" y2="100%"><stop offset="10%" stop-color="#0a151e" stop-opacity="1"></stop><stop offset="90%" stop-color="#0a151e" stop-opacity="1"></stop></linearGradient></defs><defs><linearGradient id="grad2_0" x1="0%" y1="0%" x2="50%" y2="100%"><stop offset="10%" stop-color="#0a151e" stop-opacity="1"></stop><stop offset="90%" stop-color="#0a151e" stop-opacity="1"></stop></linearGradient></defs><g transform="translate(900, 0)"><path d="M0 405C-61.1 407 -122.2 409.1 -155 374.2C-187.8 339.3 -192.3 267.5 -229.1 229.1C-265.9 190.7 -334.9 185.7 -369.6 153.1C-404.2 120.5 -404.6 60.2 -405 0L0 0Z" fill="#385812"></path></g><g transform="translate(0, 450)"><path d="M0 -405C57.1 -403.8 114.2 -402.7 155 -374.2C195.8 -345.7 220.2 -289.8 247.5 -247.5C274.8 -205.2 304.9 -176.4 331.7 -137.4C358.4 -98.4 381.7 -49.2 405 0L0 0Z" fill="#385812"></path></g></svg>